<svg width="64" height="64" viewBox="0 0 64 64" fill="none" xmlns="http://www.w3.org/2000/svg">
<path d="M20 12L32.5 8.5L40 12L46 24.5L50 28L48 40.5L43.5 52L30.5 56.5L20 54L16 44.5L10 36L13 24.5L20 12Z" fill="#313036"/>
<path d="M20 12L32.5 8.5L25 24.5L17 26L10 36L13 24.5L20 12Z" fill="#62616B"/>
<g filter="url(#filter0_f_82_78)">
<path d="M17.5 17.5L20 12L23 17L22.5 19.5L17.5 17.5Z" fill="#E7E8E9" fill-opacity="0.25"/>
</g>
<path d="M35 26L32.5 8.5L25 24.5L17 26L10 36L18.5 29L28.5 30.5L35 26Z" fill="#494950"/>
<path d="M30.5 42L29.5 48L38 45.5L42.5 37.5V25.5L46 24.5L50 28L48 40.5L43.5 52L30.5 56.5L20 54L16 44.5L25 45.5L28 42H30.5Z" fill="#18181B"/>
<defs>
<filter id="filter0_f_82_78" x="16.5" y="11" width="7.5" height="9.5" filterUnits="userSpaceOnUse" color-interpolation-filters="sRGB">
<feFlood flood-opacity="0" result="BackgroundImageFix"/>
<feBlend mode="normal" in="SourceGraphic" in2="BackgroundImageFix" result="shape"/>
<feGaussianBlur stdDeviation="0.5" result="effect1_foregroundBlur_82_78"/>
</filter>
</defs>
</svg>
