<svg width="64" height="64" viewBox="0 0 64 64" fill="none" xmlns="http://www.w3.org/2000/svg">
<path d="M41 46.6154L44.4768 54L44.9663 52.845C45.6701 51.1844 46.8099 49.7451 48.265 48.6794L48.6449 48.4012C50.2011 47.2615 51.218 45.5302 51.4557 43.616L52 39.2308L49.25 40.1538L52 36V33.9576C52 32.5688 51.6786 31.1989 51.061 29.955L49.5422 26.8961C48.7464 25.2934 47.6022 23.8889 46.1934 22.7855L44.2083 21.2308L42.8333 23.5385L41.9167 23.0769L42.8333 20.3077L38.9575 17.7057C37.8818 16.9836 36.6963 16.4404 35.4469 16.0973L32.2917 15.2308L32.0625 17.0769L32.75 21.6923H32.2917L31.375 17.0769V14.7692L26.7917 13.3846L21.2917 12.2308L19.4583 12V18.9231L20.375 22.1538L18.5417 20.7692V15.2308L18.1942 12.432C18.128 11.8983 17.7279 11.4669 17.2007 11.3607C16.2698 11.1732 15.383 10.8106 14.5874 10.2923L8 6L9.83333 16.6154L12.125 23.0769L13.2195 26.1079C13.7081 27.4608 14.4359 28.7149 15.3683 29.8103L17.6994 32.549C18.8574 33.9094 20.3046 34.9941 21.9352 35.7239L31.8333 40.1538L41 46.6154Z" fill="url(#paint0_radial_82_145)"/>
<path d="M42.1231 49.2457L44.354 54L44.5181 53.0623C44.8366 51.2416 44.8159 49.3777 44.457 47.5645L44.0584 45.5509C43.776 44.1239 43.1856 42.7757 42.3285 41.6004L38.2117 35.9552C37.5633 35.0662 36.7958 34.2706 35.9307 33.5907L35.179 33L33.5802 36.4615L33.1235 31.3846L30.6378 29.4312C29.5621 28.5859 28.3498 27.9307 27.0532 27.494L23.5309 26.3077L22.1605 25.8462L21.2469 29.5385L21.7037 33.6923L20.7901 30.9231L20.5653 28.1538L20.7901 25.3846L18.0494 24.4615L16.1018 22.1657C15.575 21.5448 15.126 20.8617 14.7649 20.1319L12.1111 14.7692L8 6L9.82716 16.6154L12.1111 23.0769L13.2029 26.1105C13.6892 27.4618 14.4141 28.7147 15.3431 29.8098L17.0769 31.8536C18.6193 33.6718 20.5485 35.1223 22.7235 36.099L29.8051 39.2791C31.1007 39.8609 32.3369 40.5668 33.4965 41.3869L38.5168 44.9376C40.0715 46.0373 41.3142 47.5217 42.1231 49.2457Z" fill="#547939"/>
<defs>
<radialGradient id="paint0_radial_82_145" cx="0" cy="0" r="1" gradientTransform="matrix(27.0417 -36.4615 33.4231 25.1361 12.5833 54)" gradientUnits="userSpaceOnUse">
<stop stop-color="#78AD52"/>
<stop offset="0.69" stop-color="#6C9B4A"/>
<stop offset="1" stop-color="#8EBA6E"/>
</radialGradient>
</defs>
</svg>
