<svg width="64" height="64" viewBox="0 0 64 64" fill="none" xmlns="http://www.w3.org/2000/svg">
<path d="M19.7662 51.8717C14.3797 48.6811 6.50964 42.8571 6.50964 42.8571L9.40858 39.9252L12.5 40L12.5 39L11.5 38L12.9142 36.5291C16.3558 32.9493 19.2449 28.8768 21.4865 24.4456L23.8492 19.775C24.6129 18.2653 25.1682 16.659 25.5 15L28.5 16.5L26 14L26 12.5L26.2596 7.5C26.2596 7.5 36.5 10.5 42.3921 13.674C47.7786 16.8647 56.4662 21.3085 56.4662 21.3085L54.6377 29.7621C54.0776 32.3515 53.1037 34.8338 51.7535 37.1132L49 38L44.5 37.5L49.715 40.5548L48.7748 42.142C46.6914 45.6593 44.1844 48.9079 41.3101 51.8149L34.0421 59.1655C34.0421 59.1655 25.1527 55.0623 19.7662 51.8717Z" fill="url(#paint0_linear_98_94)"/>
<defs>
<linearGradient id="paint0_linear_98_94" x1="39.6004" y1="11.3183" x2="35.2434" y2="56.6059" gradientUnits="userSpaceOnUse">
<stop stop-color="#A88E71"/>
<stop offset="0.436406" stop-color="#EEE6DD"/>
<stop offset="1" stop-color="#FBF8F4"/>
</linearGradient>
</defs>
</svg>
