<svg width="64" height="64" viewBox="0 0 64 64" fill="none" xmlns="http://www.w3.org/2000/svg">
<path d="M16.5 44.5L3 40L7.24974 36.2225C7.41543 36.0752 7.55548 35.9014 7.66416 35.7082L11.8653 28.2394C11.9547 28.0806 12.0654 27.9346 12.1943 27.8057L19.889 20.111C19.9629 20.0371 20.0309 19.9576 20.0923 19.8731L23.6108 15.0352C23.8635 14.6877 24.2215 14.4308 24.6317 14.3026L31.2303 12.2405C31.7241 12.0862 32.2585 12.1293 32.7213 12.3606L39.4584 15.7292C39.8115 15.9058 40.1045 16.1829 40.3004 16.5258L43.8824 22.7942C43.9605 22.9309 44.0545 23.0579 44.1625 23.1726L52 31.5L60 40L48 44.5L40.8543 46.733C40.2859 46.9107 39.7028 47.0372 39.1119 47.111L33.2403 47.845C32.4167 47.9479 31.5833 47.9479 30.7597 47.845L24.9825 47.1228C24.3291 47.0411 23.6853 46.8951 23.0606 46.6869L16.5 44.5Z" fill="#E0D185"/>
<path d="M39.1119 47.111L33.01 47.8737C32.7923 47.901 32.696 47.6085 32.8872 47.501L39.9366 43.5357C39.9788 43.5119 40.0227 43.4913 40.0679 43.4739L46.293 41.0796C46.4306 41.0267 46.5619 40.9588 46.6845 40.877L48.9701 39.3533C50.0202 38.6532 50.1674 37.1674 49.2749 36.2749L42.3063 29.3063C42.1045 29.1045 41.9481 28.8617 41.8479 28.5944L37.6697 17.4525C37.5582 17.1551 37.3774 16.8886 37.1424 16.6749L32 12L39.4584 15.7292C39.8115 15.9058 40.1045 16.1829 40.3004 16.5258L43.8824 22.7942C43.9605 22.9309 44.0545 23.0579 44.1625 23.1726L52 31.5L60 40L48 44.5L40.8543 46.733C40.2859 46.9107 39.7028 47.0372 39.1119 47.111Z" fill="#A38F29"/>
<path d="M37.2785 36.6704L31.2513 41.3067C31.0878 41.4325 30.8894 41.5046 30.6832 41.5132L19.2579 41.9893C19.0888 41.9963 18.9205 41.9603 18.7691 41.8845L17.3929 41.1964C17.1341 41.067 16.9064 40.883 16.7256 40.657L15 38.5L12.9619 36.8695C12.6604 36.6283 12.2956 36.4796 11.9115 36.4411L8.44305 36.0943C7.84617 36.0346 7.254 36.246 6.82983 36.6702L3.5 40L16.3629 45.158C16.4542 45.1946 16.548 45.2245 16.6437 45.2472L24 47L32.1612 47.9601C32.3808 47.986 32.6029 47.9383 32.7925 47.8245L39.8117 43.613C39.9369 43.5379 40.0698 43.4767 40.2083 43.4306L45.7239 41.592C45.907 41.531 46.0803 41.4438 46.2384 41.3331L50.9024 38.0684C50.9533 38.0327 50.9597 37.9597 50.9157 37.9157L45 32L42.2205 28.7573C42.0745 28.587 41.9583 28.3933 41.8765 28.1845L37.6706 17.4361C37.5584 17.1492 37.3814 16.8922 37.1535 16.685L32 12L34 18L36.0932 25.9543C36.3627 26.9783 36.7931 27.9529 37.3683 28.8419L42 36L37.7778 36.4691C37.5961 36.4893 37.4234 36.5589 37.2785 36.6704Z" fill="#CCB333"/>
</svg>
