<svg width="64" height="64" viewBox="0 0 64 64" fill="none" xmlns="http://www.w3.org/2000/svg">
<path d="M13.4737 28L15 16L26.5 13L36 17.0625H44.7368L51.6842 28L53 34L51.6842 36L54 42L48.7895 52.0625L33.7368 56L21.5789 53.8125L16.9474 45.5L10 38.0625L13.4737 28Z" fill="#B8C1C7"/>
<path d="M15 16L26.5 13L36 17L42.5 23.5H26L18 29L10 38.5L13.5 28L15 16Z" fill="#E2E6E9"/>
<path d="M39 29.6364L42.5 23.5H26L18 29L10 38L19.86 32.1455L31.46 33.4L39 29.6364Z" fill="#D1DAE0"/>
<path d="M33.5 53.7344L45 48.5L41 45.5L46.5 44L47.6406 38.7812L51.68 36L54 41.5L48.7969 51.9219L33.7656 56L21.625 53.7344H33.5Z" fill="#8F97A3"/>
<g filter="url(#filter0_f_89_361)">
<path d="M17.5 21L15 16L20 14.5L26 23.5L17.5 21Z" fill="#D2E2FF" fill-opacity="0.62"/>
</g>
<defs>
<filter id="filter0_f_89_361" x="14" y="13.5" width="13" height="11" filterUnits="userSpaceOnUse" color-interpolation-filters="sRGB">
<feFlood flood-opacity="0" result="BackgroundImageFix"/>
<feBlend mode="normal" in="SourceGraphic" in2="BackgroundImageFix" result="shape"/>
<feGaussianBlur stdDeviation="0.5" result="effect1_foregroundBlur_89_361"/>
</filter>
</defs>
</svg>
