<svg width="64" height="64" viewBox="0 0 64 64" fill="none" xmlns="http://www.w3.org/2000/svg">
<g filter="url(#filter0_i_69_26)">
<path d="M15.1257 16.9958L27.194 11.3388C27.6699 11.1157 28.1892 11 28.7148 11H35.0763C35.3784 11 35.6793 11.0382 35.9717 11.1137L47.8915 14.1897C48.8634 14.4406 49.6856 15.0875 50.1579 15.9731L52.2754 19.9434C52.738 20.8109 52.8239 21.8302 52.5131 22.7629L49.7944 30.9189C49.5492 31.6545 49.5492 32.4497 49.7944 33.1852L52.5306 41.394C52.8312 42.2956 52.7612 43.2796 52.3362 44.1297L50.0918 48.6185C49.6601 49.4819 48.8983 50.1346 47.9789 50.4288L38.7515 53.3816C38.3985 53.4946 38.0301 53.5521 37.6594 53.5521H24.9148C24.5297 53.5521 24.1471 53.49 23.7817 53.3682L15.5561 50.6263C14.3362 50.2197 13.4277 49.1906 13.1755 47.9296L10.158 32.8422C10.054 32.322 10.0667 31.7851 10.1954 31.2704L13.1702 19.3713C13.4316 18.3256 14.1498 17.4532 15.1257 16.9958Z" fill="url(#paint0_linear_69_26)"/>
</g>
<path d="M35.3705 49.6159L45.0553 44.9672C45.4896 44.7588 45.6812 44.2442 45.4892 43.8024L42.0844 35.9715C41.6258 34.9166 41.7014 33.7056 42.2879 32.7159L48.5207 22.198L51.4862 21.6049C52.1607 21.47 52.7293 22.114 52.5118 22.7666L49.7943 30.919C49.5491 31.6545 49.5491 32.4497 49.7943 33.1853L52.5305 41.394C52.8311 42.2956 52.7611 43.2797 52.3361 44.1297L50.0917 48.6185C49.66 49.482 48.8982 50.1347 47.9788 50.4289L38.7514 53.3816C38.3984 53.4946 38.03 53.5521 37.6593 53.5521H24.9147C24.5296 53.5521 24.147 53.49 23.7816 53.3682L14.7354 50.3528C14.5233 50.2821 14.5742 49.9688 14.7977 49.9688H33.8199C34.3567 49.9688 34.8866 49.8482 35.3705 49.6159Z" fill="#67737E"/>
<path d="M15.1257 16.9958L27.194 11.3388C27.6699 11.1157 28.1892 11 28.7148 11H35.5312L33.4779 16.1334C33.0767 17.1363 32.2446 17.9047 31.213 18.2249L19.8542 21.75L14.4792 30.2604L13.067 32.3786C12.843 32.7147 12.4216 32.8593 12.0384 32.7315L10.787 32.3144C10.3429 32.1664 10.0877 31.7014 10.2012 31.2473L13.1702 19.3713C13.4316 18.3256 14.1498 17.4532 15.1257 16.9958Z" fill="#D8DBDF"/>
<path d="M35.3706 49.6159L45.0554 44.9672C45.4897 44.7587 45.6813 44.2441 45.4893 43.8024L42.0845 35.9714C41.6258 34.9165 41.7015 33.7055 42.288 32.7159L48.5208 22.1979L44.0285 20.9144C42.9128 20.5956 41.7117 20.8369 40.8056 21.5618L38.4872 23.4165C38.0172 23.7925 37.6495 24.2808 37.418 24.8364L35.7823 28.7621C35.6163 29.1605 35.5236 29.5856 35.5088 30.0168L35.1883 39.3107C35.1278 41.0656 33.8045 42.5181 32.0628 42.7414L19.9246 44.2976C18.5199 44.4777 17.1409 43.8136 16.4059 42.603L10 32.0521L13.2953 48.5285C13.4628 49.3659 14.1981 49.9688 15.0521 49.9688H33.82C34.3567 49.9688 34.8867 49.8482 35.3706 49.6159Z" fill="#89949F"/>
<defs>
<filter id="filter0_i_69_26" x="10.0884" y="11" width="42.6261" height="43.4479" filterUnits="userSpaceOnUse" color-interpolation-filters="sRGB">
<feFlood flood-opacity="0" result="BackgroundImageFix"/>
<feBlend mode="normal" in="SourceGraphic" in2="BackgroundImageFix" result="shape"/>
<feColorMatrix in="SourceAlpha" type="matrix" values="0 0 0 0 0 0 0 0 0 0 0 0 0 0 0 0 0 0 127 0" result="hardAlpha"/>
<feOffset dy="0.895833"/>
<feGaussianBlur stdDeviation="0.895833"/>
<feComposite in2="hardAlpha" operator="arithmetic" k2="-1" k3="1"/>
<feColorMatrix type="matrix" values="0 0 0 0 0 0 0 0 0 0 0 0 0 0 0 0 0 0 0.25 0"/>
<feBlend mode="normal" in2="shape" result="effect1_innerShadow_69_26"/>
</filter>
<linearGradient id="paint0_linear_69_26" x1="15.375" y1="17.7188" x2="48.9688" y2="49.0729" gradientUnits="userSpaceOnUse">
<stop stop-color="#DADDE0"/>
<stop offset="1" stop-color="#73808C"/>
</linearGradient>
</defs>
</svg>
