<svg width="64" height="64" viewBox="0 0 64 64" fill="none" xmlns="http://www.w3.org/2000/svg">
<path d="M25 14L23 16H27L29 14H25Z" fill="#EBE07A" fill-opacity="0.8"/>
<path d="M22 20L23 16H27L29 20L27 24H23L22 20Z" fill="#DDCB22" fill-opacity="0.8"/>
<path d="M29 14L27 16L29 20L31.5 18.5L29 14Z" fill="#B1A21B" fill-opacity="0.8"/>
<path d="M29 22L27 24L29 20L31.5 18.5L29 22Z" fill="#857A14" fill-opacity="0.8"/>
<path d="M15 24L13 26H17L19 24H15Z" fill="#EBE07A" fill-opacity="0.8"/>
<path d="M12 30L13 26H17L19 30L17 34H13L12 30Z" fill="#DDCB22" fill-opacity="0.8"/>
<path d="M19 24L17 26L19 30L21.5 28.5L19 24Z" fill="#B1A21B" fill-opacity="0.8"/>
<path d="M19 32L17 34L19 30L21.5 28.5L19 32Z" fill="#857A14" fill-opacity="0.8"/>
<path d="M18 29L16 31H20L22 29H18Z" fill="#EBE07A" fill-opacity="0.8"/>
<path d="M15 35L16 31H20L22 35L20 39H16L15 35Z" fill="#DDCB22" fill-opacity="0.8"/>
<path d="M22 29L20 31L22 35L24.5 33.5L22 29Z" fill="#B1A21B" fill-opacity="0.8"/>
<path d="M22 37L20 39L22 35L24.5 33.5L22 37Z" fill="#857A14" fill-opacity="0.8"/>
<path d="M21 20L19 22H23L25 20H21Z" fill="#EBE07A" fill-opacity="0.8"/>
<path d="M18 26L19 22H23L25 26L23 30H19L18 26Z" fill="#DDCB22" fill-opacity="0.8"/>
<path d="M25 20L23 22L25 26L27.5 24.5L25 20Z" fill="#B1A21B" fill-opacity="0.8"/>
<path d="M25 28L23 30L25 26L27.5 24.5L25 28Z" fill="#857A14" fill-opacity="0.8"/>
<path d="M25 27L23 29H27L29 27H25Z" fill="#EBE07A" fill-opacity="0.8"/>
<path d="M22 33L23 29H27L29 33L27 37H23L22 33Z" fill="#DDCB22" fill-opacity="0.8"/>
<path d="M29 27L27 29L29 33L31.5 31.5L29 27Z" fill="#B1A21B" fill-opacity="0.8"/>
<path d="M29 35L27 37L29 33L31.5 31.5L29 35Z" fill="#857A14" fill-opacity="0.8"/>
<path d="M28 31L26 33H30L32 31H28Z" fill="#EBE07A" fill-opacity="0.8"/>
<path d="M25 37L26 33H30L32 37L30 41H26L25 37Z" fill="#DDCB22" fill-opacity="0.8"/>
<path d="M32 31L30 33L32 37L34.5 35.5L32 31Z" fill="#B1A21B" fill-opacity="0.8"/>
<path d="M32 39L30 41L32 37L34.5 35.5L32 39Z" fill="#857A14" fill-opacity="0.8"/>
<path d="M22 34L20 36H24L26 34H22Z" fill="#EBE07A" fill-opacity="0.8"/>
<path d="M19 40L20 36H24L26 40L24 44H20L19 40Z" fill="#DDCB22" fill-opacity="0.8"/>
<path d="M26 34L24 36L26 40L28.5 38.5L26 34Z" fill="#B1A21B" fill-opacity="0.8"/>
<path d="M26 42L24 44L26 40L28.5 38.5L26 42Z" fill="#857A14" fill-opacity="0.8"/>
<path d="M16.8327 37.1404L15.6028 39.6874L19.3797 38.3703L20.6096 35.8232L16.8327 37.1404Z" fill="#EBE07A" fill-opacity="0.8"/>
<path d="M15.9757 43.7936L15.6028 39.6874L19.3797 38.3703L22.5853 41.4886L22.014 45.9241L18.2371 47.2413L15.9757 43.7936Z" fill="#DDCB22" fill-opacity="0.8"/>
<path d="M20.6096 35.8232L19.3798 38.3703L22.5854 41.4886L24.452 39.249L20.6096 35.8232Z" fill="#B1A21B" fill-opacity="0.8"/>
<path d="M23.244 43.3771L22.0141 45.9241L22.5854 41.4886L24.452 39.249L23.244 43.3771Z" fill="#857A14" fill-opacity="0.8"/>
<path d="M26 36L24 38H28L30 36H26Z" fill="#EBE07A" fill-opacity="0.8"/>
<path d="M23 42L24 38H28L30 42L28 46H24L23 42Z" fill="#DDCB22" fill-opacity="0.8"/>
<path d="M30 36L28 38L30 42L32.5 40.5L30 36Z" fill="#B1A21B" fill-opacity="0.8"/>
<path d="M30 44L28 46L30 42L32.5 40.5L30 44Z" fill="#857A14" fill-opacity="0.8"/>
<path d="M32 35L30 37H34L36 35H32Z" fill="#EBE07A" fill-opacity="0.8"/>
<path d="M29 41L30 37H34L36 41L34 45H30L29 41Z" fill="#DDCB22" fill-opacity="0.8"/>
<path d="M36 35L34 37L36 41L38.5 39.5L36 35Z" fill="#B1A21B" fill-opacity="0.8"/>
<path d="M36 43L34 45L36 41L38.5 39.5L36 43Z" fill="#857A14" fill-opacity="0.8"/>
<path d="M32 27L30 29H34L36 27H32Z" fill="#EBE07A" fill-opacity="0.8"/>
<path d="M29 33L30 29H34L36 33L34 37H30L29 33Z" fill="#DDCB22" fill-opacity="0.8"/>
<path d="M36 27L34 29L36 33L38.5 31.5L36 27Z" fill="#B1A21B" fill-opacity="0.8"/>
<path d="M36 35L34 37L36 33L38.5 31.5L36 35Z" fill="#857A14" fill-opacity="0.8"/>
<path d="M36.7743 23.2086L34.138 24.2334L37.7991 25.8448L40.4353 24.82L36.7743 23.2086Z" fill="#EBE07A" fill-opacity="0.8"/>
<path d="M31.6114 27.4916L34.138 24.2334L37.7991 25.8448L38.0182 30.3115L34.5763 33.1669L30.9152 31.5555L31.6114 27.4916Z" fill="#DDCB22" fill-opacity="0.8"/>
<path d="M40.4353 24.82L37.799 25.8448L38.0182 30.3115L40.9106 29.9458L40.4353 24.82Z" fill="#B1A21B" fill-opacity="0.8"/>
<path d="M37.2126 32.1421L34.5763 33.1669L38.0183 30.3115L40.9107 29.9458L37.2126 32.1421Z" fill="#857A14" fill-opacity="0.8"/>
<path d="M31 17L29 19H33L35 17H31Z" fill="#EBE07A" fill-opacity="0.8"/>
<path d="M28 23L29 19H33L35 23L33 27H29L28 23Z" fill="#DDCB22" fill-opacity="0.8"/>
<path d="M35 17L33 19L35 23L37.5 21.5L35 17Z" fill="#B1A21B" fill-opacity="0.8"/>
<path d="M35 25L33 27L35 23L37.5 21.5L35 25Z" fill="#857A14" fill-opacity="0.8"/>
<path d="M41.0218 37.0492L38.195 37.1438L41.1164 39.8761L43.9432 39.7816L41.0218 37.0492Z" fill="#EBE07A" fill-opacity="0.8"/>
<path d="M34.7323 39.3821L38.1949 37.1438L41.1163 39.8761L39.8447 44.1636L35.6517 45.7188L32.7303 42.9865L34.7323 39.3821Z" fill="#DDCB22" fill-opacity="0.8"/>
<path d="M43.9432 39.7816L41.1164 39.8761L39.8448 44.1636L42.6952 44.7758L43.9432 39.7816Z" fill="#B1A21B" fill-opacity="0.8"/>
<path d="M38.4786 45.6243L35.6518 45.7188L39.8448 44.1636L42.6952 44.7758L38.4786 45.6243Z" fill="#857A14" fill-opacity="0.8"/>
<path d="M33 30L31 32H35L37 30H33Z" fill="#EBE07A" fill-opacity="0.8"/>
<path d="M30 36L31 32H35L37 36L35 40H31L30 36Z" fill="#DDCB22" fill-opacity="0.8"/>
<path d="M37 30L35 32L37 36L39.5 34.5L37 30Z" fill="#B1A21B" fill-opacity="0.8"/>
<path d="M37 38L35 40L37 36L39.5 34.5L37 38Z" fill="#857A14" fill-opacity="0.8"/>
<path d="M28 21L26 23H30L32 21H28Z" fill="#EBE07A" fill-opacity="0.8"/>
<path d="M25 27L26 23H30L32 27L30 31H26L25 27Z" fill="#DDCB22" fill-opacity="0.8"/>
<path d="M32 21L30 23L32 27L34.5 25.5L32 21Z" fill="#B1A21B" fill-opacity="0.8"/>
<path d="M32 29L30 31L32 27L34.5 25.5L32 29Z" fill="#857A14" fill-opacity="0.8"/>
</svg>
