<svg width="65" height="64" viewBox="0 0 65 64" fill="none" xmlns="http://www.w3.org/2000/svg">
<path d="M39.5098 34.3021C39.6027 35.156 39.6401 36.0214 39.6218 36.8984C39.4881 37.7836 39.2955 38.6654 39.044 39.5435C38.6746 40.3988 38.2472 41.2347 37.7617 42.0511C37.1644 42.8129 36.5141 43.5396 35.8111 44.2314C35.0108 44.8384 34.167 45.3962 33.2798 45.905C32.318 46.303 31.3259 46.6404 30.3035 46.9171C29.236 47.0635 28.1545 47.1413 27.0588 47.1504C25.9529 47.0175 24.851 46.8125 23.7533 46.5353C22.6828 46.1139 21.6355 45.6216 20.6114 45.0584C19.6525 44.3588 18.7353 43.5947 17.8599 42.7662C17.0854 41.8189 16.3694 40.8185 15.7119 39.765C15.1859 38.6199 14.732 37.4373 14.3503 36.2172C14.1233 34.9404 13.9778 33.6453 13.9137 32.3318C14.0183 31.0026 14.2086 29.6764 14.4846 28.3532C14.9321 27.0584 15.464 25.7889 16.0801 24.5448C16.8591 23.3736 17.7151 22.2495 18.6481 21.1725C19.7236 20.2102 20.8633 19.3145 22.0672 18.4857C23.3825 17.8075 24.7441 17.2121 26.1519 16.6995C27.6312 16.3651 29.1347 16.1247 30.6626 15.9783C32.2151 16.0269 33.7673 16.1748 35.3193 16.4222C36.8452 16.8689 38.3451 17.4139 39.8191 18.0572C41.2157 18.891 42.5613 19.8153 43.8559 20.8302C45.0248 22.0135 46.1198 23.2732 47.1411 24.6092C47.9947 26.0793 48.7556 27.6059 49.4239 29.189C49.8919 30.8614 50.2539 32.5658 50.5098 34.3021C50.5449 36.0751 50.467 37.8524 50.2762 39.634C49.8579 41.3951 49.327 43.1314 48.6834 44.8428C47.8205 46.4757 46.8528 48.0551 45.7804 49.5812C44.5117 50.9733 43.1533 52.2859 41.7052 53.519C40.0979 54.5696 38.4225 55.5189 36.679 56.3666C34.8252 56.9937 32.9302 57.5033 30.9942 57.8954C29.0058 58.0418 27.007 58.0618 24.9977 57.9555C22.9997 57.5937 21.0237 57.1046 19.0697 56.4884C17.1922 55.6233 15.3689 54.6385 13.5997 53.5341C11.9695 52.204 10.4232 50.7699 8.96076 49.2318C7.6928 47.507 6.534 45.7012 5.48437 43.8144C4.6738 41.7934 3.99135 39.7206 3.43702 37.5958C3.1522 35.4 3.00669 33.1858 3.00049 30.9532C3.2776 28.7193 3.69646 26.5028 4.25706 24.3038C5.0967 22.1757 6.07132 20.1008 7.18092 18.0792C8.5469 16.1984 10.0321 14.4043 11.6364 12.6969C13.457 11.1932 15.3728 9.8051 17.3836 8.53259C19.5552 7.51536 21.7909 6.63593 24.0907 5.89432C26.4836 5.44448 28.9045 5.14638 31.3533 5C33.8195 5.16401 36.2745 5.4842 38.7185 5.96058C41.1006 6.7463 43.4322 7.68263 45.7132 8.76959C47.8549 10.1447 49.9087 11.6549 51.8745 13.3002C53.6305 15.1931 55.2658 17.1963 56.7805 19.3099C58.0261 21.6133 59.1254 23.9945 60.0783 26.4534C60.7189 29.0305 61.1961 31.6467 61.5098 34.3021" stroke="#C96A2E" stroke-width="6"/>
</svg>
