<svg width="64" height="64" viewBox="0 0 64 64" fill="none" xmlns="http://www.w3.org/2000/svg">
<path d="M44.8044 26.425C45.2043 26.5034 45.5789 26.716 45.9128 27.0324C46.3952 27.4895 46.8093 28.1685 47.1472 28.9982C47.4867 29.8321 47.7514 30.8266 47.9314 31.9201C48.1116 33.015 48.2053 34.1949 48.2048 35.3898C48.2043 36.5847 48.1103 37.775 47.9294 38.8908C47.7486 40.0061 47.483 41.0314 47.1443 41.9035C46.807 42.7719 46.3965 43.4916 45.9236 43.9982C45.5895 44.356 45.2119 44.6141 44.8044 44.7355V44.8156H10.3982V26.3889H44.8044V26.425Z" fill="url(#paint0_linear_86_167)"/>
<path d="M44.8044 26.425H44.3797V26.7745L44.7226 26.8418L44.8044 26.425ZM45.9128 27.0324L46.205 26.7241L46.205 26.7241L45.9128 27.0324ZM47.1472 28.9982L47.5406 28.8381L47.5406 28.838L47.1472 28.9982ZM47.9314 31.9201L48.3505 31.8511V31.8511L47.9314 31.9201ZM48.2048 35.3898L48.6296 35.39V35.39L48.2048 35.3898ZM47.9294 38.8908L48.3487 38.9588L48.3487 38.9588L47.9294 38.8908ZM47.1443 41.9035L47.5402 42.0573L47.5402 42.0573L47.1443 41.9035ZM45.9236 43.9982L46.234 44.2881L46.2341 44.2881L45.9236 43.9982ZM44.8044 44.7355L44.6831 44.3285L44.3797 44.4189V44.7355H44.8044ZM44.8044 44.8156V45.2404H45.2292V44.8156H44.8044ZM10.3982 44.8156H9.97342V45.2404H10.3982V44.8156ZM10.3982 26.3889V25.9641H9.97342V26.3889H10.3982ZM44.8044 26.3889H45.2292V25.9641H44.8044V26.3889ZM44.8044 26.425L44.7226 26.8418C45.0276 26.9016 45.3322 27.0674 45.6207 27.3407L45.9128 27.0324L46.205 26.7241C45.8257 26.3646 45.3809 26.1053 44.8862 26.0082L44.8044 26.425ZM45.9128 27.0324L45.6207 27.3407C46.0432 27.7411 46.4286 28.3599 46.7538 29.1584L47.1472 28.9982L47.5406 28.838C47.19 27.9771 46.7473 27.238 46.205 26.7241L45.9128 27.0324ZM47.1472 28.9982L46.7538 29.1584C47.0787 29.9563 47.3361 30.9189 47.5123 31.9891L47.9314 31.9201L48.3505 31.8511C48.1666 30.7342 47.8947 29.7078 47.5406 28.8381L47.1472 28.9982ZM47.9314 31.9201L47.5123 31.9891C47.6885 33.0597 47.7805 34.2164 47.7801 35.3897L48.2048 35.3898L48.6296 35.39C48.6301 34.1734 48.5348 32.9703 48.3505 31.8511L47.9314 31.9201ZM48.2048 35.3898L47.7801 35.3897C47.7796 36.5629 47.6872 37.7305 47.5101 38.8228L47.9294 38.8908L48.3487 38.9588C48.5334 37.8194 48.6291 36.6064 48.6296 35.39L48.2048 35.3898ZM47.9294 38.8908L47.5101 38.8228C47.3331 39.9152 47.0741 40.9109 46.7483 41.7497L47.1443 41.9035L47.5402 42.0573C47.8919 41.1519 48.1642 40.0969 48.3487 38.9588L47.9294 38.8908ZM47.1443 41.9035L46.7483 41.7497C46.4225 42.5885 46.0364 43.2549 45.6131 43.7084L45.9236 43.9982L46.2341 44.2881C46.7565 43.7284 47.1915 42.9552 47.5402 42.0573L47.1443 41.9035ZM45.9236 43.9982L45.6131 43.7083C45.3168 44.0256 45.0012 44.2337 44.6831 44.3285L44.8044 44.7355L44.9258 45.1426C45.4226 44.9946 45.8621 44.6865 46.234 44.2881L45.9236 43.9982ZM44.8044 44.7355H44.3797V44.8156H44.8044H45.2292V44.7355H44.8044ZM44.8044 44.8156V44.3908H10.3982V44.8156V45.2404H44.8044V44.8156ZM10.3982 44.8156H10.823V26.3889H10.3982H9.97342V44.8156H10.3982ZM10.3982 26.3889V26.8136H44.8044V26.3889V25.9641H10.3982V26.3889ZM44.8044 26.3889H44.3797V26.425H44.8044H45.2292V26.3889H44.8044Z" fill="#5B3E24"/>
<path d="M10.3984 26.3888C11.0275 26.3889 11.5795 26.7206 12.0342 27.2179C12.4886 27.715 12.8787 28.4106 13.1973 29.2345C13.8354 30.885 14.2207 33.1362 14.2207 35.6017C14.2207 38.0673 13.8355 40.3193 13.1973 41.9698C12.8787 42.7937 12.4886 43.4893 12.0342 43.9865C11.5796 44.4837 11.0274 44.8155 10.3984 44.8156C9.76928 44.8156 9.21642 44.4838 8.76172 43.9865C8.30729 43.4893 7.91718 42.7937 7.59863 41.9698C6.96042 40.3193 6.5752 38.0673 6.5752 35.6017C6.57523 33.1363 6.96049 30.885 7.59863 29.2345C7.91715 28.4107 8.30734 27.715 8.76172 27.2179C9.21642 26.7205 9.76928 26.3888 10.3984 26.3888Z" fill="#E6B680" stroke="#5B3E24" stroke-width="0.849543"/>
<ellipse cx="10.469" cy="35.0528" rx="1.6433" ry="4.9299" fill="#E6B680"/>
<path d="M10.4692 29.6981C10.8821 29.6982 11.2081 29.9491 11.4429 30.2469C11.6814 30.5497 11.8777 30.9617 12.0347 31.4325C12.35 32.3785 12.5376 33.6585 12.5376 35.0526C12.5376 36.4469 12.35 37.7276 12.0347 38.6737C11.8778 39.1443 11.6813 39.5557 11.4429 39.8583C11.2081 40.1561 10.8821 40.408 10.4692 40.4081C10.0563 40.4081 9.73039 40.1562 9.49561 39.8583C9.25713 39.5557 9.06072 39.1443 8.90381 38.6737C8.58844 37.7276 8.40088 36.4469 8.40088 35.0526C8.4009 33.6584 8.58847 32.3785 8.90381 31.4325C9.06075 30.9617 9.25704 30.5497 9.49561 30.2469C9.73038 29.9491 10.0564 29.6981 10.4692 29.6981Z" stroke="#40280D" stroke-opacity="0.4" stroke-width="0.850223"/>
<ellipse cx="10.5398" cy="35.602" rx="0.525856" ry="1.57757" fill="#E6B680"/>
<path d="M10.6331 33.6065C10.8418 33.6384 10.9899 33.7736 11.0784 33.8858C11.1831 34.0188 11.2589 34.1853 11.3147 34.3526C11.4277 34.6918 11.4904 35.1334 11.4905 35.6016C11.4905 36.0701 11.4278 36.5123 11.3147 36.8516C11.2589 37.019 11.1831 37.1854 11.0784 37.3184C10.9773 37.4467 10.7978 37.6046 10.5393 37.6046C10.281 37.6044 10.1022 37.4466 10.0012 37.3184C9.89646 37.1854 9.82069 37.019 9.76489 36.8516C9.65181 36.5123 9.58911 36.0701 9.58911 35.6016C9.58915 35.1334 9.65187 34.6918 9.76489 34.3526C9.82068 34.1852 9.8965 34.0188 10.0012 33.8858C10.1022 33.7576 10.281 33.5999 10.5393 33.5997L10.6331 33.6065Z" stroke="#40280D" stroke-opacity="0.4" stroke-width="0.849543"/>
<path d="M44.3798 29.7431H17.1945M18.044 34.1373L46.9285 34.8697" stroke="#5B3E24" stroke-opacity="0.6" stroke-width="0.849543"/>
<path d="M17.1945 38.8977H44.8046L46.0789 40.3624" stroke="#5B3E24" stroke-opacity="0.6" stroke-width="0.849543"/>
<path d="M50.0044 12.0361C50.4042 12.1146 50.7789 12.3272 51.1128 12.6436C51.5952 13.1007 52.0092 13.7796 52.3472 14.6094C52.6867 15.4432 52.9513 16.4377 53.1313 17.5312C53.3116 18.6261 53.4052 19.806 53.4048 21.001C53.4043 22.1958 53.3102 23.3861 53.1294 24.502C52.9486 25.6172 52.6829 26.6426 52.3442 27.5146C52.007 28.383 51.5964 29.1028 51.1235 29.6094C50.7894 29.9672 50.4119 30.2253 50.0044 30.3467V30.4268H15.5981V12H50.0044V12.0361Z" fill="url(#paint1_linear_86_167)"/>
<path d="M50.0044 12.0361H49.5796V12.3856L49.9226 12.453L50.0044 12.0361ZM51.1128 12.6436L51.405 12.3352L51.405 12.3352L51.1128 12.6436ZM52.3472 14.6094L52.7406 14.4492L52.7406 14.4492L52.3472 14.6094ZM53.1313 17.5312L53.5505 17.4622V17.4622L53.1313 17.5312ZM53.4048 21.001L53.8296 21.0012V21.0011L53.4048 21.001ZM53.1294 24.502L53.5487 24.5699L53.5487 24.5699L53.1294 24.502ZM52.3442 27.5146L52.7402 27.6684L52.7402 27.6684L52.3442 27.5146ZM51.1235 29.6094L51.434 29.8993L51.434 29.8992L51.1235 29.6094ZM50.0044 30.3467L49.8831 29.9396L49.5796 30.03V30.3467H50.0044ZM50.0044 30.4268V30.8515H50.4292V30.4268H50.0044ZM15.5981 30.4268H15.1734V30.8515H15.5981V30.4268ZM15.5981 12V11.5752H15.1734V12H15.5981ZM50.0044 12H50.4292V11.5752H50.0044V12ZM50.0044 12.0361L49.9226 12.453C50.2275 12.5128 50.5322 12.6786 50.8206 12.9519L51.1128 12.6436L51.405 12.3352C51.0256 11.9758 50.5809 11.7164 50.0862 11.6193L50.0044 12.0361ZM51.1128 12.6436L50.8206 12.9519C51.2431 13.3522 51.6285 13.971 51.9538 14.7696L52.3472 14.6094L52.7406 14.4492C52.3899 13.5882 51.9473 12.8491 51.405 12.3352L51.1128 12.6436ZM52.3472 14.6094L51.9538 14.7695C52.2786 15.5675 52.536 16.5301 52.7122 17.6003L53.1313 17.5312L53.5505 17.4622C53.3666 16.3453 53.0947 15.319 52.7406 14.4492L52.3472 14.6094ZM53.1313 17.5312L52.7122 17.6003C52.8885 18.6708 52.9805 19.8275 52.98 21.0008L53.4048 21.001L53.8296 21.0011C53.83 19.7845 53.7347 18.5814 53.5505 17.4622L53.1313 17.5312ZM53.4048 21.001L52.98 21.0008C52.9795 22.174 52.8871 23.3417 52.7101 24.434L53.1294 24.502L53.5487 24.5699C53.7334 23.4306 53.8291 22.2175 53.8296 21.0012L53.4048 21.001ZM53.1294 24.502L52.7101 24.434C52.533 25.5264 52.2741 26.522 51.9483 27.3609L52.3442 27.5146L52.7402 27.6684C53.0918 26.7631 53.3642 25.708 53.5487 24.5699L53.1294 24.502ZM52.3442 27.5146L51.9483 27.3609C51.6225 28.1997 51.2364 28.866 50.813 29.3195L51.1235 29.6094L51.434 29.8992C51.9565 29.3396 52.3914 28.5664 52.7402 27.6684L52.3442 27.5146ZM51.1235 29.6094L50.8131 29.3195C50.5168 29.6368 50.2011 29.8448 49.8831 29.9396L50.0044 30.3467L50.1257 30.7538C50.6226 30.6057 51.062 30.2976 51.434 29.8993L51.1235 29.6094ZM50.0044 30.3467H49.5796V30.4268H50.0044H50.4292V30.3467H50.0044ZM50.0044 30.4268V30.002H15.5981V30.4268V30.8515H50.0044V30.4268ZM15.5981 30.4268H16.0229V12H15.5981H15.1734V30.4268H15.5981ZM15.5981 12V12.4248H50.0044V12V11.5752H15.5981V12ZM50.0044 12H49.5796V12.0361H50.0044H50.4292V12H50.0044Z" fill="#5B3E24"/>
<path d="M15.5984 12C16.2274 12.0001 16.7795 12.3318 17.2341 12.8291C17.6886 13.3262 18.0787 14.0218 18.3972 14.8457C19.0354 16.4962 19.4206 18.7475 19.4207 21.2129C19.4207 23.6785 19.0354 25.9305 18.3972 27.5811C18.0787 28.4049 17.6886 29.1006 17.2341 29.5977C16.7795 30.0949 16.2274 30.4267 15.5984 30.4268C14.9692 30.4268 14.4164 30.095 13.9617 29.5977C13.5072 29.1005 13.1171 28.4049 12.7986 27.5811C12.1604 25.9305 11.7751 23.6785 11.7751 21.2129C11.7752 18.7475 12.1604 16.4962 12.7986 14.8457C13.1171 14.0219 13.5073 13.3262 13.9617 12.8291C14.4164 12.3317 14.9692 12 15.5984 12Z" fill="#E6B680" stroke="#5B3E24" stroke-width="0.849543"/>
<ellipse cx="15.6689" cy="20.664" rx="1.6433" ry="4.9299" fill="#E6B680"/>
<path d="M15.6692 15.3093C16.082 15.3094 16.4081 15.5602 16.6428 15.8581C16.8814 16.1608 17.0777 16.5728 17.2346 17.0436C17.5499 17.9897 17.7375 19.2696 17.7375 20.6638C17.7375 22.0581 17.55 23.3388 17.2346 24.2849C17.0777 24.7554 16.8812 25.1668 16.6428 25.4694C16.4081 25.7673 16.082 26.0191 15.6692 26.0192C15.2562 26.0192 14.9303 25.7673 14.6956 25.4694C14.4571 25.1668 14.2607 24.7555 14.1038 24.2849C13.7884 23.3388 13.6008 22.0581 13.6008 20.6638C13.6008 19.2695 13.7884 17.9897 14.1038 17.0436C14.2607 16.5728 14.457 16.1608 14.6956 15.8581C14.9303 15.5603 15.2563 15.3093 15.6692 15.3093Z" stroke="#40280D" stroke-opacity="0.4" stroke-width="0.850223"/>
<ellipse cx="15.7397" cy="21.2132" rx="0.525856" ry="1.57757" fill="#E6B680"/>
<path d="M15.833 19.2177C16.0418 19.2496 16.1899 19.3848 16.2783 19.497C16.383 19.63 16.4589 19.7965 16.5146 19.9638C16.6277 20.3031 16.6904 20.7446 16.6904 21.2128C16.6904 21.6813 16.6277 22.1235 16.5146 22.4628C16.4589 22.6302 16.3831 22.7966 16.2783 22.9296C16.1773 23.0579 15.9978 23.2158 15.7393 23.2158C15.481 23.2156 15.3022 23.0578 15.2012 22.9296C15.0964 22.7966 15.0206 22.6302 14.9648 22.4628C14.8518 22.1235 14.7891 21.6813 14.7891 21.2128C14.7891 20.7446 14.8518 20.3031 14.9648 19.9638C15.0206 19.7964 15.0965 19.63 15.2012 19.497C15.3022 19.3688 15.481 19.2111 15.7393 19.2109L15.833 19.2177Z" stroke="#40280D" stroke-opacity="0.4" stroke-width="0.849543"/>
<path d="M49.5798 15.3543H22.3944M23.244 19.7485L52.1284 20.4809" stroke="#5B3E24" stroke-opacity="0.6" stroke-width="0.849543"/>
<path d="M22.3944 24.5089H50.0046L51.2789 25.9737" stroke="#5B3E24" stroke-opacity="0.6" stroke-width="0.849543"/>
<path d="M52.1553 29.8821C52.5434 29.9585 52.9073 30.1648 53.2314 30.4719C53.6998 30.9158 54.1016 31.5745 54.4297 32.3801C54.7596 33.1902 55.0175 34.1565 55.1924 35.219C55.3674 36.2823 55.4565 37.4276 55.4561 38.5881C55.4556 39.7489 55.3652 40.9055 55.1895 41.9895C55.0139 43.0726 54.7567 44.0683 54.4277 44.9153C54.1001 45.7588 53.7006 46.4575 53.2412 46.9495C52.9169 47.2968 52.5506 47.5473 52.1553 47.6653V47.7424H18.7383V29.8469H52.1553V29.8821Z" fill="url(#paint2_linear_86_167)"/>
<path d="M52.1553 29.8821H51.7427V30.2213L52.0755 30.2869L52.1553 29.8821ZM53.2314 30.4719L53.5152 30.1725L53.5152 30.1724L53.2314 30.4719ZM54.4297 32.3801L54.8118 32.2245L54.8118 32.2245L54.4297 32.3801ZM55.1924 35.219L55.5995 35.152V35.152L55.1924 35.219ZM55.4561 38.5881L55.8686 38.5883V38.5883L55.4561 38.5881ZM55.1895 41.9895L55.5967 42.0555V42.0555L55.1895 41.9895ZM54.4277 44.9153L54.8123 45.0646L54.8123 45.0646L54.4277 44.9153ZM53.2412 46.9495L53.5427 47.231L53.5428 47.231L53.2412 46.9495ZM52.1553 47.6653L52.0373 47.27L51.7427 47.3579V47.6653H52.1553ZM52.1553 47.7424V48.155H52.5678V47.7424H52.1553ZM18.7383 47.7424H18.3257V48.155H18.7383V47.7424ZM18.7383 29.8469V29.4344H18.3257V29.8469H18.7383ZM52.1553 29.8469H52.5678V29.4344H52.1553V29.8469ZM52.1553 29.8821L52.0755 30.2869C52.3718 30.3452 52.6678 30.5062 52.9477 30.7714L53.2314 30.4719L53.5152 30.1724C53.1469 29.8235 52.715 29.5719 52.235 29.4773L52.1553 29.8821ZM53.2314 30.4719L52.9476 30.7713C53.3579 31.1602 53.7318 31.7604 54.0476 32.5357L54.4297 32.3801L54.8118 32.2245C54.4713 31.3885 54.0417 30.6715 53.5152 30.1725L53.2314 30.4719ZM54.4297 32.3801L54.0476 32.5357C54.3633 33.311 54.6142 34.2465 54.7853 35.286L55.1924 35.219L55.5995 35.152C55.4208 34.0666 55.1558 33.0693 54.8118 32.2245L54.4297 32.3801ZM55.1924 35.219L54.7853 35.286C54.9564 36.3253 55.0439 37.4481 55.0435 38.588L55.4561 38.5881L55.8686 38.5883C55.869 37.4072 55.7785 36.2393 55.5995 35.152L55.1924 35.219ZM55.4561 38.5881L55.0435 38.588C55.043 39.728 54.9542 40.8625 54.7822 41.9235L55.1895 41.9895L55.5967 42.0555C55.7762 40.9485 55.8681 39.7698 55.8686 38.5883L55.4561 38.5881ZM55.1895 41.9895L54.7822 41.9235C54.6102 42.9847 54.3595 43.9514 54.0432 44.7659L54.4277 44.9153L54.8123 45.0646C55.1539 44.1852 55.4175 43.1606 55.5967 42.0555L55.1895 41.9895ZM54.4277 44.9153L54.0432 44.7659C53.7268 45.5804 53.3511 46.2273 52.9397 46.6679L53.2412 46.9495L53.5428 47.231C54.0501 46.6876 54.4734 45.9372 54.8123 45.0646L54.4277 44.9153ZM53.2412 46.9495L52.9397 46.6679C52.6521 46.9759 52.3459 47.1778 52.0373 47.27L52.1553 47.6653L52.2733 48.0606C52.7554 47.9167 53.1817 47.6176 53.5427 47.231L53.2412 46.9495ZM52.1553 47.6653H51.7427V47.7424H52.1553H52.5678V47.6653H52.1553ZM52.1553 47.7424V47.3299H18.7383V47.7424V48.155H52.1553V47.7424ZM18.7383 47.7424H19.1508V29.8469H18.7383H18.3257V47.7424H18.7383ZM18.7383 29.8469V30.2595H52.1553V29.8469V29.4344H18.7383V29.8469ZM52.1553 29.8469H51.7427V29.8821H52.1553H52.5678V29.8469H52.1553Z" fill="#5B3E24"/>
<path d="M18.1948 29.3183C18.8239 29.3184 19.3759 29.6501 19.8306 30.1474C20.285 30.6445 20.6751 31.3401 20.9937 32.164C21.6318 33.8145 22.0171 36.0657 22.0171 38.5312C22.0171 40.9968 21.6319 43.2488 20.9937 44.8994C20.6751 45.7232 20.285 46.4189 19.8306 46.916C19.376 47.4132 18.8238 47.745 18.1948 47.7451C17.5657 47.7451 17.0128 47.4133 16.5581 46.916C16.1037 46.4188 15.7136 45.7232 15.395 44.8994C14.7568 43.2488 14.3716 40.9968 14.3716 38.5312C14.3716 36.0658 14.7569 33.8145 15.395 32.164C15.7135 31.3402 16.1037 30.6445 16.5581 30.1474C17.0128 29.65 17.5657 29.3183 18.1948 29.3183Z" fill="#E6B680" stroke="#5B3E24" stroke-width="0.849543"/>
<ellipse cx="18.2654" cy="37.9822" rx="1.6433" ry="4.9299" fill="#E6B680"/>
<path d="M18.2656 32.6275C18.6785 32.6276 19.0045 32.8785 19.2393 33.1763C19.4778 33.479 19.6741 33.8911 19.8311 34.3619C20.1464 35.3079 20.334 36.5878 20.334 37.982C20.334 39.3763 20.1464 40.657 19.8311 41.6031C19.6742 42.0736 19.4777 42.485 19.2393 42.7877C19.0045 43.0855 18.6785 43.3374 18.2656 43.3375C17.8526 43.3375 17.5268 43.0856 17.292 42.7877C17.0535 42.4851 16.8571 42.0737 16.7002 41.6031C16.3848 40.657 16.1973 39.3763 16.1973 37.982C16.1973 36.5878 16.3849 35.3079 16.7002 34.3619C16.8571 33.8911 17.0534 33.479 17.292 33.1763C17.5268 32.8785 17.8528 32.6275 18.2656 32.6275Z" stroke="#40280D" stroke-opacity="0.4" stroke-width="0.850223"/>
<ellipse cx="18.3362" cy="38.5315" rx="0.525856" ry="1.57757" fill="#E6B680"/>
<path d="M18.4294 36.5359C18.6382 36.5679 18.7863 36.703 18.8748 36.8152C18.9795 36.9482 19.0553 37.1147 19.1111 37.282C19.2241 37.6213 19.2868 38.0628 19.2869 38.5311C19.2869 38.9995 19.2242 39.4417 19.1111 39.7811C19.0553 39.9484 18.9795 40.1149 18.8748 40.2479C18.7737 40.3761 18.5942 40.534 18.3357 40.534C18.0774 40.5338 17.8986 40.376 17.7976 40.2479C17.6929 40.1149 17.6171 39.9485 17.5613 39.7811C17.4482 39.4417 17.3855 38.9995 17.3855 38.5311C17.3855 38.0628 17.4483 37.6213 17.5613 37.282C17.6171 37.1147 17.6929 36.9482 17.7976 36.8152C17.8986 36.6871 18.0774 36.5293 18.3357 36.5291L18.4294 36.5359Z" stroke="#40280D" stroke-opacity="0.4" stroke-width="0.849543"/>
<path d="M52.1762 32.6725H24.9908M25.8404 37.0668L54.7248 37.7991" stroke="#5B3E24" stroke-opacity="0.6" stroke-width="0.849543"/>
<path d="M24.9908 41.8272H52.601L53.8753 43.2919" stroke="#5B3E24" stroke-opacity="0.6" stroke-width="0.849543"/>
<defs>
<linearGradient id="paint0_linear_86_167" x1="29.3015" y1="26.3889" x2="29.3015" y2="44.8156" gradientUnits="userSpaceOnUse">
<stop stop-color="#A57041"/>
<stop offset="1" stop-color="#6E4A2B"/>
</linearGradient>
<linearGradient id="paint1_linear_86_167" x1="34.5015" y1="12" x2="34.5015" y2="30.4268" gradientUnits="userSpaceOnUse">
<stop stop-color="#A57041"/>
<stop offset="1" stop-color="#6E4A2B"/>
</linearGradient>
<linearGradient id="paint2_linear_86_167" x1="37.0977" y1="29.8469" x2="37.0977" y2="47.7424" gradientUnits="userSpaceOnUse">
<stop stop-color="#A57041"/>
<stop offset="1" stop-color="#6E4A2B"/>
</linearGradient>
</defs>
</svg>
